<?xml version="1.0" encoding="UTF-8"?>
<svg id="Capa_1" data-name="Capa 1" xmlns="http://www.w3.org/2000/svg" viewBox="0 0 500 500">
  <defs>
    <style>
      .cls-1 {
        fill: #f4e600;
      }

      .cls-2 {
        fill: #343434;
      }
    </style>
  </defs>
  <path class="cls-1" d="M250,1.81C112.93,1.81,1.81,112.93,1.81,250s111.12,248.19,248.19,248.19,248.19-111.12,248.19-248.19S387.07,1.81,250,1.81ZM425.11,425.11H74.89V74.89h350.22v350.22Z"/>
  <g>
    <path class="cls-2" d="M406.95,393.32l-45.6,17.15v-14.13l31.99-10.34-31.99-10.28v-13.55l45.6,17.08v14.07Z"/>
    <path class="cls-2" d="M406.95,357.99h-45.6v-30.38h10.53v18.18h6.62v-15.93h10.47v15.93h7.51v-18.88h10.47v31.09Z"/>
    <path class="cls-2" d="M406.95,320.48h-45.6v-16.38c0-3.94.61-7.34,1.83-10.21,1.22-2.87,2.96-5.06,5.2-6.58,2.25-1.52,4.94-2.28,8.06-2.28,1.67,0,3.29.3,4.85.9,1.56.6,3.01,1.43,4.34,2.5s2.44,2.33,3.34,3.79l17.98-9.96v13.49l-14.58,7.07c.04.6.06,1.2.06,1.8,0,1.11-.11,2.33-.32,3.66h14.84v12.2ZM371.56,308.28h10.41c.17-.77.29-1.51.35-2.22.06-.71.1-1.51.1-2.41,0-1.88-.49-3.38-1.48-4.5-.98-1.11-2.35-1.67-4.11-1.67s-2.96.59-3.89,1.77c-.92,1.18-1.38,2.82-1.38,4.91v4.11Z"/>
    <path class="cls-2" d="M406.95,269.29h-34.3v12.01h-11.3v-36.87h11.3v12.01h34.3v12.85Z"/>
    <path class="cls-2" d="M406.95,238.66h-45.6v-12.85h45.6v12.85Z"/>
    <path class="cls-2" d="M408.23,196.52c0,2.7-.38,5.25-1.16,7.64-.77,2.4-1.86,4.56-3.28,6.49-1.41,1.93-3.09,3.6-5.04,5.01-1.95,1.41-4.13,2.49-6.55,3.24-2.42.75-5,1.12-7.74,1.12s-5.34-.39-7.8-1.16c-2.46-.77-4.71-1.86-6.74-3.28-2.03-1.41-3.79-3.1-5.27-5.07-1.48-1.97-2.61-4.14-3.4-6.52-.79-2.38-1.19-4.89-1.19-7.55s.36-5,1.09-7.29c.73-2.29,1.77-4.36,3.12-6.2,1.35-1.84,2.97-3.4,4.85-4.69,1.88-1.28,3.98-2.23,6.29-2.83l2.63,12.65c-1.97.81-3.49,1.97-4.56,3.47-1.07,1.5-1.61,3.21-1.61,5.14,0,1.46.31,2.79.93,4.01s1.49,2.28,2.6,3.18c1.11.9,2.42,1.6,3.92,2.09,1.5.49,3.15.74,4.95.74,2.36,0,4.45-.43,6.29-1.28,1.84-.86,3.28-2.06,4.3-3.6,1.03-1.54,1.54-3.3,1.54-5.27,0-4.11-2.06-7.09-6.17-8.93l2.63-12.65c2.35.6,4.47,1.55,6.36,2.86,1.88,1.31,3.5,2.9,4.85,4.79,1.35,1.88,2.38,3.99,3.08,6.33.71,2.33,1.06,4.85,1.06,7.55Z"/>
    <path class="cls-2" d="M406.95,175.01l-45.6-17.92v-13.68l45.6-17.98v13.42l-7.96,2.83v17.6l7.96,2.76v12.97ZM388.9,155.74v-10.53l-14.96,5.27,14.96,5.27Z"/>
    <path class="cls-2" d="M406.95,121.25h-45.6v-12.85h34.3v-17.28h11.3v30.12Z"/>
  </g>
</svg>