<?xml version="1.0" encoding="UTF-8"?>
<svg id="Capa_1" data-name="Capa 1" xmlns="http://www.w3.org/2000/svg" viewBox="0 0 500 100">
  <defs>
    <style>
      .cls-1 {
        fill: #333;
      }
    </style>
  </defs>
  <path class="cls-1" d="M27.88,60.25l-9.96-25.82h3.34l8.33,22.25,8.29-22.25h3.2l-9.96,25.82h-3.24Z"/>
  <path class="cls-1" d="M44.75,60.25v-25.82h14.87v2.73h-11.82v8.29h10.8v2.76h-10.8v9.27h12.18v2.76h-15.23Z"/>
  <path class="cls-1" d="M65.15,60.25v-25.82h7.02c1.96,0,3.67.32,5.11.95,1.44.63,2.55,1.53,3.33,2.69.78,1.16,1.16,2.53,1.16,4.11s-.44,3.05-1.33,4.29c-.89,1.24-2.12,2.17-3.69,2.8l6.25,10.98h-3.56l-5.6-10.18c-.31.02-.66.05-1.04.07-.38.02-.76.04-1.15.04-.48,0-1.02-.02-1.62-.07-.59-.05-1.21-.12-1.84-.22v10.36h-3.05ZM68.2,37.17v10c.56.1,1.16.17,1.8.22.64.05,1.23.07,1.76.07,2.21,0,3.9-.45,5.09-1.34,1.19-.9,1.78-2.16,1.78-3.78s-.57-2.89-1.71-3.8c-1.14-.91-2.73-1.36-4.76-1.36h-3.96Z"/>
  <path class="cls-1" d="M92.24,60.25v-23.02h-7.89v-2.8h18.83v2.8h-7.89v23.02h-3.05Z"/>
  <path class="cls-1" d="M107.76,60.25v-25.82h3.05v25.82h-3.05Z"/>
  <path class="cls-1" d="M127.8,60.98c-1.77,0-3.4-.33-4.89-1-1.49-.67-2.79-1.6-3.89-2.8-1.1-1.2-1.96-2.62-2.56-4.25-.61-1.64-.91-3.42-.91-5.36,0-1.58.2-3.06.6-4.45s.97-2.67,1.71-3.82c.74-1.15,1.61-2.15,2.62-2.98,1.01-.84,2.13-1.48,3.36-1.93,1.24-.45,2.55-.67,3.93-.67,1.55,0,3,.27,4.35.8s2.53,1.29,3.56,2.25c1.03.97,1.82,2.13,2.38,3.49l-2.8,1.05c-.75-1.53-1.78-2.71-3.07-3.54-1.3-.84-2.76-1.25-4.38-1.25-1.31,0-2.52.28-3.62.84s-2.07,1.33-2.89,2.33c-.82.99-1.47,2.16-1.93,3.49-.46,1.33-.69,2.79-.69,4.36s.22,2.98.67,4.27c.45,1.3,1.08,2.42,1.91,3.38.82.96,1.8,1.7,2.93,2.22,1.13.52,2.36.78,3.69.78,1.67,0,3.16-.41,4.45-1.24,1.3-.82,2.36-2.01,3.18-3.56l2.8,1.05c-.58,1.36-1.39,2.53-2.44,3.51-1.04.98-2.25,1.73-3.64,2.25-1.38.52-2.86.78-4.44.78Z"/>
  <path class="cls-1" d="M140.56,60.25l10.4-25.82h3.24l10.4,25.82h-3.27l-2.87-7.34h-11.85l-2.87,7.34h-3.16ZM147.68,50.11h9.64l-4.8-12.29-4.84,12.29Z"/>
  <path class="cls-1" d="M168.26,60.25v-25.82h3.05v23.02h11.49v2.8h-14.54Z"/>
  <path class="cls-1" d="M186.52,60.25v-25.82h9.2c2.25,0,4.18.36,5.76,1.07,1.59.71,2.81,1.75,3.65,3.09.85,1.35,1.27,2.96,1.27,4.85,0,1.36-.25,2.59-.75,3.69-.5,1.1-1.21,2.05-2.13,2.85-.92.8-2.02,1.42-3.31,1.85-1.29.44-2.7.66-4.25.66-.8,0-1.65-.07-2.54-.22v7.96h-6.91ZM193.42,40.22v6.29c.87.15,1.65.22,2.33.22,1.14,0,2.02-.29,2.65-.85s.95-1.36.95-2.38-.32-1.85-.95-2.42c-.63-.57-1.54-.85-2.73-.85h-2.25Z"/>
  <path class="cls-1" d="M209.13,60.25v-25.82h9.27c2.23,0,4.16.35,5.78,1.04,1.62.69,2.87,1.67,3.73,2.95s1.29,2.79,1.29,4.56c0,.95-.17,1.86-.51,2.75s-.81,1.7-1.42,2.45c-.61.75-1.32,1.38-2.15,1.89l5.64,10.18h-7.64l-4-8.25c-.34.02-.68.04-1.02.04-.63,0-1.32-.06-2.07-.18v8.4h-6.91ZM216.04,40.22v5.89c.44.1.85.16,1.25.2.4.04.85.05,1.36.05,1.07,0,1.91-.28,2.55-.84.63-.56.95-1.33.95-2.33s-.33-1.68-1-2.2c-.67-.52-1.59-.78-2.78-.78h-2.33Z"/>
  <path class="cls-1" d="M245.78,60.98c-1.6,0-3.1-.22-4.51-.66-1.41-.44-2.69-1.07-3.84-1.89-1.15-.82-2.15-1.79-2.98-2.91-.84-1.12-1.48-2.36-1.93-3.75-.45-1.38-.67-2.85-.67-4.4s.23-3.02.69-4.4c.46-1.38,1.11-2.64,1.95-3.76.84-1.13,1.83-2.1,2.98-2.93,1.15-.82,2.44-1.46,3.85-1.91,1.42-.45,2.93-.67,4.53-.67s3.1.22,4.51.65c1.41.44,2.68,1.07,3.84,1.89,1.15.82,2.14,1.79,2.98,2.91.84,1.12,1.48,2.36,1.93,3.74.45,1.38.67,2.85.67,4.4s-.23,3.02-.69,4.4c-.46,1.38-1.11,2.64-1.95,3.76s-1.83,2.1-2.98,2.93c-1.15.82-2.44,1.46-3.85,1.91s-2.93.67-4.53.67ZM245.82,54.29c.95,0,1.81-.17,2.58-.51.78-.34,1.45-.82,2.04-1.46.58-.63,1.03-1.36,1.35-2.2.31-.84.47-1.76.47-2.78s-.16-1.95-.47-2.78c-.32-.84-.76-1.57-1.35-2.2-.58-.63-1.26-1.11-2.04-1.45-.78-.34-1.64-.51-2.58-.51s-1.81.17-2.58.51c-.78.34-1.45.82-2.04,1.45-.58.63-1.03,1.36-1.35,2.2-.31.84-.47,1.76-.47,2.78s.16,1.94.47,2.78c.31.84.76,1.57,1.35,2.2.58.63,1.26,1.12,2.04,1.46.78.34,1.64.51,2.58.51Z"/>
  <path class="cls-1" d="M263.05,60.25v-25.82h11.16c2.01,0,3.85.32,5.53.95,1.67.63,3.12,1.52,4.35,2.65,1.22,1.14,2.17,2.49,2.84,4.05s1,3.29,1,5.18-.34,3.63-1.02,5.22c-.68,1.59-1.64,2.96-2.87,4.13-1.24,1.16-2.7,2.06-4.38,2.69-1.69.63-3.53.95-5.54.95h-11.05ZM270.32,53.85h3.42c1.38,0,2.57-.27,3.56-.8s1.76-1.28,2.29-2.25.8-2.12.8-3.45-.27-2.49-.8-3.45c-.53-.97-1.3-1.72-2.29-2.25-.99-.53-2.18-.8-3.56-.8h-3.42v13.02Z"/>
  <path class="cls-1" d="M302.83,60.98c-1.79,0-3.42-.27-4.87-.8-1.45-.53-2.7-1.31-3.73-2.33-1.03-1.02-1.82-2.24-2.38-3.65-.56-1.42-.84-3-.84-4.75v-15.02h7.27v14.69c0,1.07.19,1.98.56,2.75.38.76.91,1.36,1.6,1.78.69.42,1.5.64,2.42.64s1.73-.21,2.42-.64c.69-.42,1.22-1.02,1.6-1.78.38-.76.56-1.68.56-2.75v-14.69h7.27v15.02c0,1.75-.28,3.33-.84,4.75-.56,1.42-1.36,2.64-2.4,3.65-1.04,1.02-2.29,1.79-3.74,2.33-1.46.53-3.09.8-4.91.8Z"/>
  <path class="cls-1" d="M331.12,60.98c-1.53,0-2.97-.22-4.33-.66-1.36-.44-2.58-1.05-3.67-1.85-1.09-.8-2.04-1.75-2.84-2.85-.8-1.1-1.41-2.34-1.84-3.71-.42-1.37-.64-2.83-.64-4.38s.22-3.02.65-4.42c.44-1.39,1.05-2.67,1.86-3.82.8-1.15,1.76-2.15,2.87-2.98,1.11-.84,2.34-1.48,3.69-1.93,1.35-.45,2.77-.67,4.27-.67s2.83.21,4.13.62,2.47,1,3.51,1.76c1.04.76,1.93,1.68,2.65,2.75.73,1.07,1.26,2.25,1.6,3.56l-7.16,1.49c-.46-1.12-1.12-1.98-1.96-2.58-.85-.61-1.82-.91-2.91-.91-.82,0-1.58.18-2.27.53-.69.35-1.29.84-1.8,1.47-.51.63-.9,1.37-1.18,2.22-.28.85-.42,1.78-.42,2.8,0,1.33.24,2.52.73,3.56s1.16,1.85,2.04,2.44c.87.58,1.87.87,2.98.87,2.33,0,4.01-1.16,5.05-3.49l7.16,1.49c-.34,1.33-.88,2.53-1.62,3.6-.74,1.07-1.64,1.98-2.71,2.75s-2.26,1.35-3.58,1.75c-1.32.4-2.74.6-4.27.6Z"/>
  <path class="cls-1" d="M358.24,60.98c-1.53,0-2.97-.22-4.33-.66-1.36-.44-2.58-1.05-3.67-1.85-1.09-.8-2.04-1.75-2.84-2.85-.8-1.1-1.41-2.34-1.84-3.71-.42-1.37-.64-2.83-.64-4.38s.22-3.02.65-4.42c.44-1.39,1.05-2.67,1.86-3.82.8-1.15,1.76-2.15,2.87-2.98,1.11-.84,2.34-1.48,3.69-1.93,1.35-.45,2.77-.67,4.27-.67s2.83.21,4.13.62,2.47,1,3.51,1.76c1.04.76,1.93,1.68,2.65,2.75.73,1.07,1.26,2.25,1.6,3.56l-7.16,1.49c-.46-1.12-1.12-1.98-1.96-2.58-.85-.61-1.82-.91-2.91-.91-.82,0-1.58.18-2.27.53-.69.35-1.29.84-1.8,1.47-.51.63-.9,1.37-1.18,2.22-.28.85-.42,1.78-.42,2.8,0,1.33.24,2.52.73,3.56s1.16,1.85,2.04,2.44c.87.58,1.87.87,2.98.87,2.33,0,4.01-1.16,5.05-3.49l7.16,1.49c-.34,1.33-.88,2.53-1.62,3.6-.74,1.07-1.64,1.98-2.71,2.75s-2.26,1.35-3.58,1.75c-1.32.4-2.74.6-4.27.6Z"/>
  <path class="cls-1" d="M373.15,60.25v-25.82h7.27v25.82h-7.27Z"/>
  <path class="cls-1" d="M397.62,60.98c-1.6,0-3.1-.22-4.51-.66-1.41-.44-2.68-1.07-3.84-1.89-1.15-.82-2.14-1.79-2.98-2.91s-1.48-2.36-1.93-3.75-.67-2.85-.67-4.4.23-3.02.69-4.4c.46-1.38,1.11-2.64,1.94-3.76.84-1.13,1.83-2.1,2.98-2.93,1.15-.82,2.44-1.46,3.85-1.91,1.42-.45,2.93-.67,4.53-.67s3.1.22,4.51.65c1.41.44,2.69,1.07,3.84,1.89,1.15.82,2.15,1.79,2.98,2.91s1.48,2.36,1.93,3.74c.45,1.38.67,2.85.67,4.4s-.23,3.02-.69,4.4c-.46,1.38-1.11,2.64-1.95,3.76-.84,1.13-1.83,2.1-2.98,2.93-1.15.82-2.44,1.46-3.85,1.91-1.42.45-2.93.67-4.53.67ZM397.65,54.29c.95,0,1.81-.17,2.58-.51s1.46-.82,2.04-1.46c.58-.63,1.03-1.36,1.34-2.2.32-.84.47-1.76.47-2.78s-.16-1.95-.47-2.78c-.31-.84-.76-1.57-1.34-2.2-.58-.63-1.26-1.11-2.04-1.45s-1.64-.51-2.58-.51-1.8.17-2.58.51c-.78.34-1.46.82-2.04,1.45-.58.63-1.03,1.36-1.35,2.2-.31.84-.47,1.76-.47,2.78s.16,1.94.47,2.78c.32.84.76,1.57,1.35,2.2.58.63,1.26,1.12,2.04,1.46.78.34,1.63.51,2.58.51Z"/>
  <path class="cls-1" d="M414.89,60.25v-25.82h6.18l10.25,15.09v-15.09h6.91v25.82h-6.18l-10.25-15.09v15.09h-6.91Z"/>
  <path class="cls-1" d="M442.23,60.25v-25.82h17.2v5.96h-10.29v3.75h9.02v5.93h-9.02v4.25h10.69v5.93h-17.6Z"/>
  <path class="cls-1" d="M472.12,60.8c-1.72,0-3.29-.29-4.69-.87-1.41-.58-2.57-1.41-3.49-2.49-.92-1.08-1.56-2.36-1.93-3.84l6.69-1.24c.24.78.68,1.41,1.31,1.91.63.5,1.37.75,2.22.75s1.54-.19,2.07-.58.8-.9.8-1.53c0-.48-.13-.88-.38-1.2-.25-.31-.67-.58-1.25-.8-.58-.22-1.37-.42-2.36-.62l-.76-.15c-1.6-.29-2.97-.8-4.11-1.54-1.14-.74-2.02-1.64-2.63-2.71-.62-1.07-.93-2.27-.93-3.6,0-1.21.24-2.33.73-3.35.49-1.02,1.17-1.9,2.05-2.65.88-.75,1.92-1.34,3.11-1.76,1.19-.42,2.47-.64,3.85-.64,1.62,0,3.08.29,4.38.85s2.38,1.38,3.24,2.42c.86,1.04,1.45,2.28,1.76,3.71l-6.54,1.27c-.19-.73-.55-1.32-1.07-1.78-.52-.46-1.16-.69-1.91-.69s-1.36.19-1.84.58-.71.87-.71,1.45c0,.44.12.81.36,1.11.24.3.64.56,1.18.76.54.21,1.29.39,2.24.56l.73.15c2.54.51,4.51,1.45,5.89,2.84,1.38,1.38,2.07,3.08,2.07,5.09,0,1.24-.25,2.38-.75,3.44-.5,1.05-1.19,1.96-2.09,2.73-.9.76-1.96,1.36-3.2,1.78s-2.58.64-4.04.64Z"/>
</svg>